<svg xmlns="http://www.w3.org/2000/svg" xmlns:xlink="http://www.w3.org/1999/xlink" version="1.1" x="0px" y="0px" viewBox="0 0 100 125" enable-background="new 0 0 100 100" xml:space="preserve" style="&#10;    fill: #006aff;&#10;"><g><path d="M50,86.913c-20.353,0-36.913-16.56-36.913-36.913c0-20.354,16.559-36.913,36.913-36.913S86.913,29.646,86.913,50   C86.913,70.353,70.353,86.913,50,86.913z M50,17.126c-18.126,0-32.873,14.747-32.873,32.874c0,18.126,14.747,32.874,32.873,32.874   S82.873,68.126,82.873,50C82.873,31.873,68.126,17.126,50,17.126z"/><path d="M50,60.918c-6.843,0-12.41-5.568-12.41-12.411S43.156,36.097,50,36.097c6.845,0,12.412,5.568,12.412,12.411   S56.844,60.918,50,60.918z M50,40.136c-4.616,0-8.371,3.756-8.371,8.371s3.755,8.371,8.371,8.371c4.617,0,8.373-3.756,8.373-8.371   S54.617,40.136,50,40.136z"/><path d="M50,86.913c-7.667,0-15.026-2.338-21.281-6.762l-0.953-0.673l0.108-1.162C28.938,66.827,38.45,58.163,50,58.163   s21.062,8.663,22.126,20.152l0.108,1.162l-0.952,0.673C65.026,84.575,57.667,86.913,50,86.913z M32.041,77.527   C37.39,81.029,43.573,82.874,50,82.874c6.428,0,12.611-1.845,17.96-5.347C66.582,68.712,59.056,62.203,50,62.203   C40.943,62.203,33.418,68.712,32.041,77.527z"/></g></svg>